# xmcd
#
# Track frame offsets: 
#        150
#        15957
#        30997
#        46646
#        58290
#        79641
#        96747
#        109687
#        129617
#        151586
#        167491
#        185886
#        200591
#
# Disc length: 2909 seconds
#
# Revision: 0
# Processed by: cddbd v1.5.2PL0 Copyright (c) Steve Scherf et al.
# Submitted via: ExactAudioCopy v1.2
#
DISCID=9f0b5b0d
DTITLE=Andy T Band - Double Strike
DYEAR=2017
DGENRE=Blues
TTITLE0=I Want You Bad
TTITLE1=Somebody Like You
TTITLE2=Deep Inside
TTITLE3=Sweet Thing
TTITLE4=I Feel So Bad
TTITLE5=Juanita
TTITLE6=Mudslide
TTITLE7=Sad Times
TTITLE8=Doin’ Hard Time
TTITLE9=Drunk or Sober
TTITLE10=I Was Gonna Leave You
TTITLE11=Dream About You
TTITLE12=Where Did Our Love Go Wrong
EXTD=
EXTT0=
EXTT1=
EXTT2=
EXTT3=
EXTT4=
EXTT5=
EXTT6=
EXTT7=
EXTT8=
EXTT9=
EXTT10=
EXTT11=
EXTT12=
PLAYORDER=
